<svg xmlns="http://www.w3.org/2000/svg" style="display: none;">
  <symbol id="i" width="24" height="24" viewBox="0 0 24 24">
    <path fill-rule="evenodd" clip-rule="evenodd" d="M1.5 7.11111C1.5 5.49034 2.14385 3.93596 3.2899 2.7899C4.43596 1.64385 5.99034 1 7.61111 1H17.3889C19.0097 1 20.564 1.64385 21.7101 2.7899C22.8562 3.93596 23.5 5.49034 23.5 7.11111V16.8889C23.5 18.5097 22.8562 20.064 21.7101 21.2101C20.564 22.3562 19.0097 23 17.3889 23H7.61111C5.99034 23 4.43596 22.3562 3.2899 21.2101C2.14385 20.064 1.5 18.5097 1.5 16.8889V7.11111ZM7.61111 3.44444C6.63865 3.44444 5.70602 3.83075 5.01839 4.51839C4.33075 5.20602 3.94444 6.13865 3.94444 7.11111V16.8889C3.94444 17.8613 4.33075 18.794 5.01839 19.4816C5.70602 20.1692 6.63865 20.5556 7.61111 20.5556H17.3889C18.3613 20.5556 19.294 20.1692 19.9816 19.4816C20.6692 18.794 21.0556 17.8613 21.0556 16.8889V7.11111C21.0556 6.13865 20.6692 5.20602 19.9816 4.51839C19.294 3.83075 18.3613 3.44444 17.3889 3.44444H7.61111ZM16.8963 6.15044C16.8963 5.82629 17.0251 5.51541 17.2543 5.2862C17.4835 5.05699 17.7944 4.92822 18.1186 4.92822H18.1308C18.4549 4.92822 18.7658 5.05699 18.995 5.2862C19.2242 5.51541 19.353 5.82629 19.353 6.15044C19.353 6.4746 19.2242 6.78547 18.995 7.01469C18.7658 7.2439 18.4549 7.37267 18.1308 7.37267H18.1186C17.7944 7.37267 17.4835 7.2439 17.2543 7.01469C17.0251 6.78547 16.8963 6.4746 16.8963 6.15044ZM12.5 8.33333C11.5275 8.33333 10.5949 8.71964 9.90727 9.40727C9.21964 10.0949 8.83333 11.0275 8.83333 12C8.83333 12.9725 9.21964 13.9051 9.90727 14.5927C10.5949 15.2804 11.5275 15.6667 12.5 15.6667C13.4725 15.6667 14.4051 15.2804 15.0927 14.5927C15.7804 13.9051 16.1667 12.9725 16.1667 12C16.1667 11.0275 15.7804 10.0949 15.0927 9.40727C14.4051 8.71964 13.4725 8.33333 12.5 8.33333ZM6.38889 12C6.38889 10.3792 7.03274 8.82485 8.17879 7.67879C9.32485 6.53274 10.8792 5.88889 12.5 5.88889C14.1208 5.88889 15.6752 6.53274 16.8212 7.67879C17.9673 8.82485 18.6111 10.3792 18.6111 12C18.6111 13.6208 17.9673 15.1752 16.8212 16.3212C15.6752 17.4673 14.1208 18.1111 12.5 18.1111C10.8792 18.1111 9.32485 17.4673 8.17879 16.3212C7.03274 15.1752 6.38889 13.6208 6.38889 12Z" />
  </symbol>
  <symbol id="f" width="24" height="24" viewBox="0 0 24 24">
    <path d="M17.9231 1.15865V4.64904H15.8474C15.0893 4.64904 14.5781 4.80769 14.3137 5.125C14.0493 5.44231 13.9171 5.91827 13.9171 6.55288V9.05168H17.7909L17.2752 12.9651H13.9171V23H9.87139V12.9651H6.5V9.05168H9.87139V6.16947C9.87139 4.53005 10.3297 3.25861 11.2464 2.35517C12.1631 1.45172 13.3838 1 14.9087 1C16.2043 1 17.2091 1.05288 17.9231 1.15865Z"  />
  </symbol>
  <symbol id="x" width="24" height="24" viewBox="0 0 24 24">
    <g clip-path="url(#clip0_22617_62)">
      <path d="M14.5745 10.3863L22.148 1H18.7677L12.9872 8.1687L7.859 1H0.5L9.0866 13.001L1.017 23H4.3984L10.6739 15.223L16.241 23H23.6L14.5745 10.3863ZM11.9565 13.6313L10.367 11.4104L4.196 2.7897H6.737L11.7178 9.7384L13.3051 11.9604L19.9249 21.2103H17.3839L11.9565 13.6313Z"  />
    </g>
    <defs>
      <clipPath id="clip0_22617_62">
        <rect width="24" height="24" fill="white" transform="translate(0.5)" />
      </clipPath>
    </defs>
  </symbol>
  <symbol id="ln" width="24" height="24" viewBox="0 0 24 24">
    <path d="M6.42457 23H1.8634V8.31173H6.42457V23ZM4.14153 6.30811C2.68302 6.30811 1.5 5.10005 1.5 3.64153C1.5 2.94095 1.7783 2.26907 2.27369 1.77369C2.76907 1.2783 3.44095 1 4.14153 1C4.84211 1 5.51399 1.2783 6.00938 1.77369C6.50476 2.26907 6.78306 2.94095 6.78306 3.64153C6.78306 5.10005 5.59956 6.30811 4.14153 6.30811ZM23.4956 23H18.9442V15.8498C18.9442 14.1458 18.9099 11.9605 16.5728 11.9605C14.2014 11.9605 13.838 13.8118 13.838 15.7271V23H9.28169V8.31173H13.6563V10.3153H13.7201C14.329 9.1613 15.8165 7.94341 18.0357 7.94341C22.6519 7.94341 23.5005 10.9832 23.5005 14.9315V23H23.4956Z"  />
  </symbol>
</svg>